<?xml version="1.0" encoding="UTF-8"?>
<!-- Generator: Adobe Illustrator 21.0.2, SVG Export Plug-In . SVG Version: 6.00 Build 0)  -->
<svg version="1.1" id="Layer_1" xmlns="http://www.w3.org/2000/svg" xmlns:xlink="http://www.w3.org/1999/xlink" x="0px" y="0px" viewBox="0 0 137 61.1" style="enable-background:new 0 0 137 61.1;" xml:space="preserve">
<style type="text/css">
	.st0{fill:#E63A34;}
	.st1{fill:none;stroke:#E63A34;stroke-width:0.6019;}
	.st2{fill:#FFFFFF;}
	.st3{fill:#FFE300;}
	.st4{fill:none;stroke:#FFE300;stroke-width:0.2404;}
	.st5{fill:#009B8A;}
	.st6{fill:none;stroke:#009B8A;stroke-width:0.2404;}
	.st7{fill:none;stroke:#FFE300;stroke-width:0.2208;}
</style>
<g>
	<g>
		<path class="st0" d="M29.9,2.3c0,0-3.2-0.3-14-0.3h-0.2C5.9,2,2.5,2.2,1.7,2.3C1.4,2.3,1.2,2.6,1.1,2.9c0,0,0,9.4-0.1,15.7    c1.4-0.1,5.5-0.2,14.9-0.2c9.2,0,13.2,0.1,14.7,0.2L30.5,2.9C30.5,2.7,30.5,2.4,29.9,2.3"/>
	</g>
	<g>
		<path class="st1" d="M29.9,2.3c0,0-3.2-0.3-14-0.3h-0.2C5.9,2,2.5,2.2,1.7,2.3C1.4,2.3,1.2,2.6,1.1,2.9c0,0,0,9.4-0.1,15.7    c1.4-0.1,5.5-0.2,14.9-0.2c9.2,0,13.2,0.1,14.7,0.2L30.5,2.9C30.5,2.7,30.5,2.4,29.9,2.3z"/>
		<path class="st2" d="M15.8,40.7c0,0-9.8-5-12.2-8.8c0,0-3.6-3.9-2.9-10.2v-2.6c0,0,12.8-0.2,15.2-0.2c0,0,13.1,0.2,15,0.2v3.6    c0,0,0.8,5.7-3.2,9.7C27.8,32.2,23.7,36.9,15.8,40.7"/>
	</g>
	<path d="M31.5,24.2L31.4,2.8c0-0.7-0.6-1.2-1.3-1.3c-0.1,0-3.3-0.3-14.2-0.3h-0.2C5.9,1.1,2.3,1.3,1.6,1.5C0.9,1.6,0.3,2.2,0.3,2.8   c0,0.1-0.1,21.4-0.1,21.4c0,0.1-0.1,1.5,0.5,3.3c0.6,2.1,2.1,4.9,5.4,7.5c5.6,4.4,9.4,6,9.6,6.1c0.1,0,0.1,0.1,0.1,0.1   c0,0,0.1,0,0.2-0.1c0.2-0.1,4-1.8,9.6-6.1c3.4-2.6,4.8-5.4,5.5-7.5C31.6,25.7,31.5,24.3,31.5,24.2 M1.1,2.9c0-0.3,0.3-0.6,0.6-0.6   C2.5,2.2,5.9,2,15.8,2h0.2c10.8,0,13.9,0.3,13.9,0.3c0.5,0.1,0.7,0.5,0.7,0.6l0.1,15.7c-1.4-0.1-5.5-0.2-14.7-0.2   c-9.3,0-13.5,0.1-14.9,0.2C1.1,12.3,1.1,2.9,1.1,2.9 M30.6,24.9C30.6,24.9,30.5,24.9,30.6,24.9C30.5,24.9,30.6,24.9,30.6,24.9   L30.6,24.9z M12.4,19.1L12.4,19.1C12.4,19.2,12.3,19.2,12.4,19.1C12.3,19.2,12.3,19.2,12.4,19.1 M28,31.4c-0.1-0.3-0.4-0.5-0.8-0.5   c-0.4,0-0.8,0.3-0.8,0.7c0,0.1,0,0.1-0.1,0.1c0,0,0,0-0.1-0.1c-0.1-0.4-0.4-0.7-0.8-0.7c-0.4,0-0.8,0.3-0.8,0.7   c0,0.1,0,0.1-0.1,0.1c0,0,0,0-0.1-0.1C24.4,31.3,24,31,23.6,31c-0.4,0-0.8,0.3-0.8,0.7c0,0.1,0,0.1-0.1,0.1c0,0,0,0-0.1-0.1   c-0.1-0.4-0.4-0.7-0.8-0.7c-0.4,0-0.8,0.3-0.8,0.7c0,0.1,0,0.1-0.1,0.1c0,0,0,0-0.1-0.1C20.8,31.3,20.5,31,20,31   c-0.5,0-0.9,0.4-0.9,0.8c0,0.4,0.3,0.8,0.7,0.8c0.1,0,0.1,0,0.1,0.1c0,0,0,0-0.1,0.1c-0.4,0.1-0.7,0.4-0.7,0.8   c0,0.4,0.3,0.8,0.7,0.8c0.1,0,0.1,0,0.1,0.1c0,0,0,0-0.1,0.1c-0.4,0.1-0.7,0.4-0.7,0.8c0,0.4,0.3,0.8,0.7,0.8c0.1,0,0.1,0,0.1,0.1   c0,0,0,0-0.1,0.1c-0.4,0.1-0.7,0.4-0.7,0.8c0,0.4,0.3,0.7,0.6,0.8c-0.3,0.2-0.5,0.3-0.5,0.3c-1.9,1.2-3.2,1.8-3.5,1.9   c-0.3-0.1-1.6-0.7-3.4-1.9c0,0-0.2-0.1-0.6-0.4c0.4-0.1,0.7-0.4,0.7-0.8c0-0.4-0.3-0.8-0.7-0.8c-0.1,0-0.1,0-0.1-0.1   c0,0,0,0,0.1-0.1c0.4-0.1,0.7-0.4,0.7-0.8c0-0.4-0.3-0.8-0.7-0.8c-0.1,0-0.1,0-0.1-0.1c0,0,0,0,0.1-0.1c0.4-0.1,0.7-0.4,0.7-0.8   c0-0.4-0.3-0.8-0.7-0.8c-0.1,0-0.1,0-0.1-0.1c0,0,0,0,0.1-0.1c0.4-0.1,0.7-0.4,0.7-0.8c0-0.5-0.4-0.8-0.8-0.8   c-0.4,0-0.8,0.3-0.8,0.7c0,0.1,0,0.1-0.1,0.1c0,0,0,0-0.1-0.1c-0.1-0.4-0.4-0.7-0.8-0.7c-0.4,0-0.8,0.3-0.8,0.7   c0,0.1,0,0.1-0.1,0.1c0,0,0,0-0.1-0.1C8.9,31.3,8.5,31,8.1,31c-0.4,0-0.8,0.3-0.8,0.7c0,0.1,0,0.1-0.1,0.1c0,0,0,0-0.1-0.1   C7.1,31.3,6.7,31,6.3,31c-0.4,0-0.8,0.3-0.8,0.7c0,0.1,0,0.1-0.1,0.1s0,0-0.1-0.1C5.3,31.3,4.9,31,4.5,31c-0.3,0-0.6,0.2-0.8,0.5   c-2-2.6-2.5-5.1-2.7-6.4v-0.2v0c0,0,0.1,0,0.1,0c0.3-0.1,0.5-0.4,0.6-0.7h0c0-0.1,0-0.1,0.1-0.1c0,0,0,0,0.1,0.1   C1.9,24.6,2.3,25,2.7,25c0.4,0,0.8-0.3,0.8-0.7c0-0.1,0-0.1,0.1-0.1c0,0,0,0,0.1,0.1C3.7,24.6,4.1,25,4.5,25c0.4,0,0.8-0.3,0.8-0.7   c0-0.1,0-0.1,0.1-0.1c0,0,0,0,0.1,0.1C5.5,24.6,5.8,25,6.3,25c0.4,0,0.8-0.3,0.8-0.7c0-0.1,0-0.1,0.1-0.1c0,0,0,0,0.1,0.1   C7.3,24.6,7.6,25,8.1,25c0.4,0,0.8-0.3,0.8-0.7c0-0.1,0-0.1,0.1-0.1c0,0,0,0,0.1,0.1C9.1,24.6,9.4,25,9.8,25c0.4,0,0.8-0.3,0.8-0.7   c0-0.1,0-0.1,0.1-0.1c0,0,0,0,0.1,0.1c0.1,0.4,0.4,0.7,0.8,0.7c0.5,0,0.8-0.4,0.8-0.8c0-0.4-0.3-0.8-0.7-0.8c-0.1,0-0.1,0-0.1-0.1   c0,0,0,0,0.1-0.1c0.4-0.1,0.7-0.4,0.7-0.8c0-0.4-0.3-0.8-0.7-0.8c-0.1,0-0.1,0-0.1-0.1c0,0,0,0,0.1-0.1c0.4-0.1,0.7-0.4,0.7-0.8   c0-0.4-0.3-0.8-0.7-0.8c-0.1,0-0.1,0-0.1-0.1c0,0,0,0,0.1-0.1c0.3,0,0.5-0.2,0.6-0.4c0,0,0,0,0,0c0,0,0,0,0,0h0c1.6,0,2.9,0,3.3,0   c0.5,0,1.8,0,3.6,0h0l0,0c0.1,0.2,0.4,0.4,0.6,0.4c0.1,0,0.1,0,0.1,0.1c0,0,0,0-0.1,0.1c-0.4,0.1-0.7,0.4-0.7,0.8   c0,0.4,0.3,0.8,0.7,0.8c0.1,0,0.1,0,0.1,0.1c0,0,0,0-0.1,0.1c-0.4,0.1-0.7,0.4-0.7,0.8c0,0.4,0.3,0.8,0.7,0.8c0.1,0,0.1,0,0.1,0.1   c0,0,0,0-0.1,0.1c-0.4,0.1-0.7,0.4-0.7,0.8c0,0.5,0.4,0.8,0.9,0.8c0.4,0,0.8-0.3,0.8-0.7c0-0.1,0-0.1,0.1-0.1c0,0,0,0,0.1,0.1   c0.1,0.4,0.4,0.7,0.8,0.7c0.4,0,0.8-0.3,0.8-0.7c0-0.1,0-0.1,0.1-0.1c0,0,0,0,0.1,0.1c0.1,0.4,0.4,0.7,0.8,0.7   c0.4,0,0.8-0.3,0.8-0.7c0-0.1,0-0.1,0.1-0.1s0,0,0.1,0.1c0.1,0.4,0.4,0.7,0.8,0.7c0.4,0,0.8-0.3,0.8-0.7c0-0.1,0-0.1,0.1-0.1   c0,0,0,0,0.1,0.1c0.1,0.4,0.4,0.7,0.8,0.7c0.4,0,0.8-0.3,0.8-0.7c0-0.1,0-0.1,0.1-0.1s0,0,0.1,0.1c0.1,0.4,0.4,0.7,0.8,0.7   c0.4,0,0.8-0.3,0.8-0.7c0-0.1,0-0.1,0.1-0.1s0,0,0.1,0.1c0,0.4,0.3,0.6,0.7,0.7l0,0.1C30.5,26.3,30,28.8,28,31.4"/>
	<path class="st3" d="M15.8,26.4c-0.4,0-0.8,0.4-0.8,0.8c0,0.4,0.4,0.8,0.8,0.8s0.8-0.4,0.8-0.8C16.6,26.8,16.3,26.4,15.8,26.4"/>
	<ellipse class="st4" cx="15.8" cy="27.2" rx="0.8" ry="0.8"/>
	<path class="st0" d="M18.9,26.6c-0.2-0.1-0.3-0.1-0.4-0.1c0,0-0.2,0.1-0.2,0.1l-0.2,0.1c0,0-0.4,0.1-0.4,0.1   c-0.6,0.2-0.8,0.1-0.8,0l0-0.1c0-0.1,0.2-0.2,0.6-0.4l0.4-0.1l0.2,0l0.2-0.1c0.1,0,0.2-0.1,0.3-0.3c0.2-0.6-0.2-1.1-0.7-1.5   c-0.6-0.4-1.3-0.6-1.7-0.3c-0.1,0.1-0.2,0.2-0.2,0.4l0,0.2l0,0.2l0,0.4c0,0.7-0.1,0.8-0.2,0.8l-0.1,0c-0.1-0.1-0.1-0.6-0.1-0.7   c0,0,0-0.4,0-0.4c0,0,0-0.2,0-0.2l0-0.2c0-0.1-0.1-0.3-0.2-0.4c-0.4-0.3-1.1-0.1-1.7,0.3c-0.5,0.4-1,0.9-0.7,1.5   c0.1,0.2,0.2,0.3,0.3,0.3c0,0,0.2,0.1,0.2,0.1l0.2,0c0,0,0.4,0.1,0.4,0.1c0.4,0.1,0.6,0.3,0.6,0.4l0,0.1c0,0.1-0.2,0.2-0.8,0   c0,0-0.4-0.2-0.4-0.2c0,0-0.2-0.1-0.2-0.1l-0.2-0.1c-0.1,0-0.3,0-0.4,0.1c-0.4,0.2-0.5,0.8-0.3,1.6c0.2,0.7,0.6,1.3,1.1,1.3   c0.2,0,0.3-0.1,0.4-0.2l0.1-0.2l0.1-0.2l0.2-0.3c0.1-0.1,0.4-0.5,0.6-0.5l0.1,0c0,0,0.1,0.1,0.1,0.1c0,0.2-0.2,0.4-0.3,0.6l0,0   c0,0-0.2,0.3-0.2,0.3c0,0-0.1,0.1-0.1,0.1l-0.1,0.2c-0.1,0.1-0.1,0.2-0.1,0.4c0.1,0.5,0.8,0.8,1.5,0.8c0.6,0,1.3-0.2,1.5-0.7   c0-0.2,0-0.3,0-0.4c0,0-0.1-0.2-0.1-0.2L17,29.3L16.8,29l-0.1-0.1c-0.1-0.1-0.3-0.4-0.3-0.6l0-0.1c0,0,0.1,0,0.1,0   c0.1,0,0.3,0.1,0.6,0.5c0,0,0.2,0.3,0.2,0.3c0,0,0.1,0.1,0.1,0.1l0.1,0.2c0.1,0.1,0.2,0.2,0.4,0.2c0.5,0,1-0.6,1.1-1.3   c0.1-0.3,0.1-0.5,0.1-0.7C19.3,27.1,19.2,26.8,18.9,26.6 M15.8,28c-0.4,0-0.8-0.4-0.8-0.8c0-0.4,0.4-0.8,0.8-0.8s0.8,0.4,0.8,0.8   C16.6,27.7,16.3,28,15.8,28"/>
	<path class="st5" d="M18.5,26.3c-0.1,0-0.1,0-0.4,0.1c-0.1,0-0.4,0.1-0.5,0.2c-0.3,0.1-0.5,0.2-0.5,0.3c0,0.1,0.2,0,0.5-0.1   c0.1,0,0.4-0.1,0.5-0.2c0.2-0.1,0.2-0.1,0.3-0.2c0.2-0.1,0.4,0,0.6,0.1c0.2,0.1,0.2,0.1,0.3,0.3c0.7-0.8,1.1-0.9,1.1-0.9   c0,0-0.5,0.1-1.6-0.1c0,0.1,0,0.1,0,0.2C18.8,26,18.7,26.2,18.5,26.3"/>
	<path class="st6" d="M18.5,26.3c-0.1,0-0.1,0-0.4,0.1c-0.1,0-0.4,0.1-0.5,0.2c-0.3,0.1-0.5,0.2-0.5,0.3c0,0.1,0.2,0,0.5-0.1   c0.1,0,0.4-0.1,0.5-0.2c0.2-0.1,0.2-0.1,0.3-0.2c0.2-0.1,0.4,0,0.6,0.1c0.2,0.1,0.2,0.1,0.3,0.3c0.7-0.8,1.1-0.9,1.1-0.9   c0,0-0.5,0.1-1.6-0.1c0,0.1,0,0.1,0,0.2C18.8,26,18.7,26.2,18.5,26.3z"/>
	<path class="st5" d="M15.8,24.5c0,0.1,0,0.1,0,0.4c0,0.1,0,0.4,0,0.5c0,0.3,0,0.5,0.1,0.5c0.1,0,0.1-0.2,0.1-0.5c0-0.1,0-0.4,0-0.5   c0-0.2,0-0.2,0-0.4c0-0.2,0.1-0.4,0.2-0.5c0.1-0.1,0.1-0.1,0.3-0.1c-0.5-0.9-0.6-1.2-0.6-1.2c0,0-0.1,0.4-0.6,1.3   c0.1,0,0.1,0,0.2,0.1C15.6,24,15.8,24.2,15.8,24.5"/>
	<path class="st6" d="M15.8,24.5c0,0.1,0,0.1,0,0.4c0,0.1,0,0.4,0,0.5c0,0.3,0,0.5,0.1,0.5c0.1,0,0.1-0.2,0.1-0.5c0-0.1,0-0.4,0-0.5   c0-0.2,0-0.2,0-0.4c0-0.2,0.1-0.4,0.2-0.5c0.1-0.1,0.1-0.1,0.3-0.1c-0.5-0.9-0.6-1.2-0.6-1.2c0,0-0.1,0.4-0.6,1.3   c0.1,0,0.1,0,0.2,0.1C15.6,24,15.8,24.2,15.8,24.5z"/>
	<path class="st5" d="M18.2,29.7c-0.1,0-0.3,0-0.5-0.2c-0.1-0.1-0.1-0.1-0.2-0.3c-0.1-0.1-0.2-0.3-0.3-0.4c-0.2-0.2-0.4-0.5-0.5-0.4   c-0.1,0.1,0.1,0.2,0.2,0.5c0.1,0.1,0.2,0.3,0.3,0.4c0.1,0.2,0.2,0.2,0.2,0.3c0.1,0.2,0.1,0.4,0.1,0.5c0,0.1,0,0.2-0.1,0.3   c0.9,0.4,1.2,0.7,1.3,0.7c0,0-0.2-0.4-0.3-1.4C18.2,29.7,18.3,29.7,18.2,29.7"/>
	<path class="st6" d="M18.2,29.7c-0.1,0-0.3,0-0.5-0.2c-0.1-0.1-0.1-0.1-0.2-0.3c-0.1-0.1-0.2-0.3-0.3-0.4c-0.2-0.2-0.4-0.5-0.5-0.4   c-0.1,0.1,0.1,0.2,0.2,0.5c0.1,0.1,0.2,0.3,0.3,0.4c0.1,0.2,0.2,0.2,0.2,0.3c0.1,0.2,0.1,0.4,0.1,0.5c0,0.1,0,0.2-0.1,0.3   c0.9,0.4,1.2,0.7,1.3,0.7c0,0-0.2-0.4-0.3-1.4C18.2,29.7,18.3,29.7,18.2,29.7z"/>
	<path class="st5" d="M14.5,29.3c0.1-0.1,0.3-0.3,0.3-0.4c0.2-0.2,0.3-0.4,0.2-0.5c-0.1-0.1-0.2,0.1-0.4,0.4   c-0.1,0.1-0.2,0.3-0.3,0.4c-0.1,0.2-0.1,0.2-0.2,0.3c-0.2,0.2-0.4,0.2-0.5,0.2c-0.1,0,0,0-0.1,0c-0.1,1-0.3,1.4-0.3,1.4   c0,0,0.3-0.2,1.2-0.6c-0.1-0.1-0.1-0.2-0.2-0.4c0-0.1,0-0.4,0.1-0.5C14.4,29.4,14.4,29.4,14.5,29.3"/>
	<path class="st6" d="M14.5,29.3c0.1-0.1,0.3-0.3,0.3-0.4c0.2-0.2,0.3-0.4,0.2-0.5c-0.1-0.1-0.2,0.1-0.4,0.4   c-0.1,0.1-0.2,0.3-0.3,0.4c-0.1,0.2-0.1,0.2-0.2,0.3c-0.2,0.2-0.4,0.2-0.5,0.2c-0.1,0,0,0-0.1,0c-0.1,1-0.3,1.4-0.3,1.4   c0,0,0.3-0.2,1.2-0.6c-0.1-0.1-0.1-0.2-0.2-0.4c0-0.1,0-0.4,0.1-0.5C14.4,29.4,14.4,29.4,14.5,29.3z"/>
	<path class="st5" d="M13.2,26.4c0.1,0,0.1,0.1,0.4,0.2c0.1,0.1,0.4,0.2,0.5,0.2c0.3,0.1,0.5,0.1,0.6,0c0-0.1-0.2-0.2-0.5-0.3   c-0.1,0-0.4-0.1-0.5-0.2c-0.2-0.1-0.2-0.1-0.4-0.1c-0.2-0.1-0.3-0.3-0.4-0.4c0-0.1,0-0.2,0-0.3c-1,0.2-1.4,0.2-1.4,0.2   c0,0,0.3,0.2,1,0.9c0.1-0.1,0.1-0.1,0.2-0.2C12.7,26.4,12.9,26.4,13.2,26.4"/>
	<path class="st6" d="M13.2,26.4c0.1,0,0.1,0.1,0.4,0.2c0.1,0.1,0.4,0.2,0.5,0.2c0.3,0.1,0.5,0.1,0.6,0c0-0.1-0.2-0.2-0.5-0.3   c-0.1,0-0.4-0.1-0.5-0.2c-0.2-0.1-0.2-0.1-0.4-0.1c-0.2-0.1-0.3-0.3-0.4-0.4c0-0.1,0-0.2,0-0.3c-1,0.2-1.4,0.2-1.4,0.2   c0,0,0.3,0.2,1,0.9c0.1-0.1,0.1-0.1,0.2-0.2C12.7,26.4,12.9,26.4,13.2,26.4z"/>
	<path d="M18.9,25.4c0-0.5-0.4-0.9-0.8-1.2c-0.4-0.3-0.9-0.5-1.3-0.4c-0.3-0.5-0.9-1.9-0.9-1.9c0,0-0.5,1.3-0.8,1.9   c-0.5-0.1-1,0.1-1.4,0.4c-0.4,0.3-0.7,0.7-0.8,1.2c-0.6,0.2-2.1,0.2-2.1,0.2c0,0,1.1,0.8,1.6,1.4c-0.2,0.4-0.1,0.9,0,1.3   c0.1,0.6,0.5,1.1,0.9,1.3c0,0.6-0.5,2.1-0.4,2.1c0,0,1.2-0.8,1.8-1.1c0.3,0.3,0.8,0.4,1.3,0.4c0.5,0,1-0.1,1.3-0.4   c0.6,0.2,1.9,1.1,1.9,1.1c0,0-0.4-1.4-0.5-2.1c0.5-0.2,0.8-0.7,0.9-1.3c0.1-0.4,0.1-0.9,0-1.3c0.4-0.5,1.6-1.4,1.6-1.4   C21.1,25.6,19.6,25.6,18.9,25.4 M19.3,26.8c-0.1-0.1-0.1-0.2-0.3-0.3c-0.1-0.1-0.3-0.1-0.6-0.1c-0.1,0-0.1,0.1-0.3,0.2   c-0.1,0.1-0.4,0.1-0.5,0.2c-0.3,0.1-0.5,0.2-0.5,0.1c0-0.1,0.2-0.2,0.5-0.3c0.1,0,0.4-0.1,0.5-0.2c0.2-0.1,0.2-0.1,0.4-0.1   c0.2-0.1,0.3-0.3,0.4-0.4c0-0.1,0-0.1,0-0.2c1,0.2,1.5,0.1,1.6,0.1C20.4,25.9,20.1,26,19.3,26.8 M15.9,22.6c0,0,0.1,0.4,0.6,1.2   c-0.1,0-0.2,0-0.3,0.1c-0.1,0.1-0.2,0.3-0.2,0.5c0,0.1,0,0.1,0,0.4c0,0.1,0,0.4,0,0.5c0,0.3,0,0.5-0.1,0.5c-0.1,0-0.1-0.2-0.1-0.5   c0-0.1,0-0.4,0-0.5c0-0.2,0-0.2,0-0.4c0-0.2-0.1-0.4-0.2-0.5c-0.1-0.1-0.1-0.1-0.2-0.1C15.8,23,15.8,22.6,15.9,22.6 M12.4,26.7   c-0.7-0.7-1-0.9-1-0.9c0,0,0.4,0,1.4-0.2c0,0.1,0,0.2,0,0.3c0,0.1,0.2,0.3,0.4,0.4c0.1,0,0.1,0,0.4,0.1c0.1,0,0.4,0.1,0.5,0.2   c0.3,0.1,0.5,0.2,0.5,0.3c0,0.1-0.3,0.1-0.6,0c-0.1,0-0.4-0.1-0.5-0.2c-0.2-0.1-0.2-0.1-0.4-0.2c-0.2-0.1-0.4,0-0.6,0.1   C12.5,26.6,12.5,26.6,12.4,26.7 M13.2,31.1c0,0,0.1-0.4,0.3-1.4c0.1,0,0,0,0.1,0c0.1,0,0.3,0,0.5-0.2c0.1-0.1,0.1-0.1,0.2-0.3   c0.1-0.1,0.2-0.3,0.3-0.4c0.2-0.2,0.4-0.4,0.4-0.4c0.1,0.1,0,0.2-0.2,0.5c-0.1,0.1-0.2,0.3-0.3,0.4c-0.2,0.2-0.2,0.2-0.3,0.3   c-0.1,0.2-0.1,0.4-0.1,0.5c0,0.2,0.1,0.2,0.2,0.4C13.4,30.9,13.2,31.1,13.2,31.1 M18.6,31.1c0,0-0.3-0.3-1.3-0.7   c0.1-0.1,0.1-0.1,0.1-0.3c0-0.1,0.1-0.3-0.1-0.5c-0.1-0.1-0.1-0.1-0.2-0.3c-0.1-0.1-0.2-0.3-0.3-0.4c-0.2-0.3-0.3-0.4-0.2-0.5   c0.1-0.1,0.3,0.1,0.5,0.4c0.1,0.1,0.2,0.3,0.3,0.4c0.1,0.2,0.1,0.2,0.2,0.3c0.2,0.2,0.4,0.2,0.5,0.2c0.1,0,0,0,0.1,0   C18.4,30.7,18.6,31.1,18.6,31.1 M19.1,28.2c-0.2,0.6-0.6,1.2-1,1.2c-0.2,0-0.3-0.1-0.3-0.1c-0.1-0.1-0.1-0.2-0.2-0.3   c-0.1-0.1-0.1-0.2-0.2-0.3c-0.1-0.2-0.6-0.7-0.9-0.5c-0.3,0.2,0.1,0.7,0.3,0.9c0.1,0.1,0.2,0.2,0.2,0.3c0.1,0.1,0.2,0.2,0.3,0.3   c0,0.1,0.1,0.2,0,0.3c-0.1,0.5-0.7,0.7-1.4,0.7c-0.7,0-1.3-0.3-1.4-0.7c0,0,0-0.1,0-0.1c0-0.1,0-0.2,0.1-0.3c0,0,0,0,0-0.1   c0.1-0.1,0.1-0.1,0.2-0.2c0.1-0.1,0.2-0.2,0.3-0.3c0.1-0.2,0.5-0.6,0.2-0.9c-0.3-0.2-0.7,0.3-0.8,0.5c-0.1,0.1-0.2,0.2-0.2,0.3   c-0.1,0.1-0.1,0.2-0.2,0.3c-0.1,0.1-0.1,0.1-0.3,0.1c-0.4,0-0.8-0.6-1-1.2c-0.2-0.6-0.2-1.3,0.2-1.5c0.2-0.1,0.2-0.1,0.3,0   c0.1,0.1,0.2,0.1,0.4,0.2c0.1,0,0.2,0.1,0.4,0.2c0.2,0.1,0.8,0.3,0.9,0c0.1-0.3-0.5-0.5-0.7-0.6c-0.1-0.1-0.3-0.1-0.4-0.1   c-0.2,0-0.2,0-0.4-0.1c-0.1,0-0.2-0.1-0.2-0.2c-0.2-0.5,0.2-1,0.7-1.4c0.5-0.4,1.3-0.6,1.6-0.3c0.1,0.1,0.2,0.2,0.2,0.3   c0,0.2,0,0.2,0,0.4c0,0.1,0,0.2,0,0.4c0,0.2,0,0.9,0.3,0.9c0.3,0,0.3-0.7,0.3-0.9c0-0.2,0-0.3,0-0.4c0-0.2,0-0.2,0-0.4   c0-0.1,0-0.2,0.2-0.3c0.3-0.3,1-0.1,1.6,0.3c0.5,0.4,0.9,0.9,0.7,1.4c-0.1,0.2-0.1,0.2-0.2,0.2c-0.1,0.1-0.2,0-0.4,0.1   c-0.1,0-0.2,0.1-0.4,0.1c-0.2,0.1-0.8,0.3-0.7,0.6c0.1,0.3,0.7,0.1,0.9,0c0.1-0.1,0.3-0.1,0.4-0.2c0.2-0.1,0.2-0.1,0.4-0.2   c0.1,0,0.2,0,0.3,0C19.3,26.9,19.3,27.6,19.1,28.2"/>
	<path class="st3" d="M18.8,10.1c-0.2-0.1-0.4-0.4-0.5-0.4c-0.3-0.2-1.9-2.4-2.2-3c-0.1-0.2-0.2-0.2-0.3-0.2c-0.1,0-0.2,0-0.3,0.2   c-0.3,0.5-1.9,2.7-2.2,3c-0.1,0.1-0.3,0.3-0.5,0.4c-0.1,0.1-0.6,0.4-0.6,0.7c0,0.2,0,0.3,0,0.4c0,0.1,0.1,0.2,0.2,0.3   c0.1-0.1,1.4-1.4,1.5-1.4c0.1,0.1-1.2,1.7-1.3,1.8c0,0,0.1,0.4,0.2,0.5c0.1,0.2,0.3,0.3,0.3,0.3c0.1-0.1,1.2-2,1.4-1.9   c0.1,0-1,2.1-1,2.2c0,0,0.4,0.4,0.6,0.5c0.1,0.1,0.3,0.1,0.4,0.2c0-0.1,0.7-2.5,0.8-2.5c0.1,0-0.2,2.5-0.2,2.6c0.1,0,0.2,0,0.4,0.1   c0.1,0,0.2,0.1,0.4,0.1c0.1,0,0.3-0.1,0.4-0.1c0.2,0,0.3-0.1,0.4-0.1c0-0.1-0.3-2.6-0.2-2.6c0.1,0,0.7,2.3,0.8,2.5   c0.1,0,0.3-0.1,0.4-0.2c0.1-0.1,0.6-0.5,0.6-0.5c0-0.1-1.1-2.2-1-2.2c0.1,0,1.3,1.8,1.4,1.9c0,0,0.2-0.2,0.3-0.3   C18.9,12.4,19,12,19,12c-0.1-0.1-1.4-1.7-1.3-1.8c0.1-0.1,1.4,1.2,1.5,1.4c0.1-0.1,0.1-0.3,0.2-0.3c0-0.1,0.1-0.2,0-0.4   C19.4,10.6,19,10.2,18.8,10.1"/>
	<path class="st7" d="M18.8,10.1c-0.2-0.1-0.4-0.4-0.5-0.4c-0.3-0.2-1.9-2.4-2.2-3c-0.1-0.2-0.2-0.2-0.3-0.2c-0.1,0-0.2,0-0.3,0.2   c-0.3,0.5-1.9,2.7-2.2,3c-0.1,0.1-0.3,0.3-0.5,0.4c-0.1,0.1-0.6,0.4-0.6,0.7c0,0.2,0,0.3,0,0.4c0,0.1,0.1,0.2,0.2,0.3   c0.1-0.1,1.4-1.4,1.5-1.4c0.1,0.1-1.2,1.7-1.3,1.8c0,0,0.1,0.4,0.2,0.5c0.1,0.2,0.3,0.3,0.3,0.3c0.1-0.1,1.2-2,1.4-1.9   c0.1,0-1,2.1-1,2.2c0,0,0.4,0.4,0.6,0.5c0.1,0.1,0.3,0.1,0.4,0.2c0-0.1,0.7-2.5,0.8-2.5c0.1,0-0.2,2.5-0.2,2.6c0.1,0,0.2,0,0.4,0.1   c0.1,0,0.2,0.1,0.4,0.1c0.1,0,0.3-0.1,0.4-0.1c0.2,0,0.3-0.1,0.4-0.1c0-0.1-0.3-2.6-0.2-2.6c0.1,0,0.7,2.3,0.8,2.5   c0.1,0,0.3-0.1,0.4-0.2c0.1-0.1,0.6-0.5,0.6-0.5c0-0.1-1.1-2.2-1-2.2c0.1,0,1.3,1.8,1.4,1.9c0,0,0.2-0.2,0.3-0.3   C18.9,12.4,19,12,19,12c-0.1-0.1-1.4-1.7-1.3-1.8c0.1-0.1,1.4,1.2,1.5,1.4c0.1-0.1,0.1-0.3,0.2-0.3c0-0.1,0.1-0.2,0-0.4   C19.4,10.6,19,10.2,18.8,10.1z"/>
	<path class="st3" d="M14.7,7.3h-1.4c0,0-0.1,0-0.2,0c0,0.1,0,0.2,0,0.2s0.5,1.2,0.5,1.2C13.7,8.6,14.6,7.5,14.7,7.3"/>
	<path class="st7" d="M14.7,7.3h-1.4c0,0-0.1,0-0.2,0c0,0.1,0,0.2,0,0.2s0.5,1.2,0.5,1.2C13.7,8.6,14.6,7.5,14.7,7.3z"/>
	<path class="st3" d="M18.5,7.6c0,0,0.1-0.1,0-0.2c0,0-0.2,0-0.2,0H17c0.1,0.2,1,1.3,1.1,1.5C18.1,8.8,18.5,7.6,18.5,7.6"/>
	<path class="st7" d="M18.5,7.6c0,0,0.1-0.1,0-0.2c0,0-0.2,0-0.2,0H17c0.1,0.2,1,1.3,1.1,1.5C18.1,8.8,18.5,7.6,18.5,7.6z"/>
	<path class="st3" d="M9.7,10.3c-0.2-0.1-0.4-0.4-0.5-0.4C8.9,9.6,7.3,7.4,7,6.9C6.9,6.7,6.8,6.7,6.7,6.7c-0.1,0-0.2,0-0.3,0.2   C6,7.4,4.4,9.6,4.2,9.8c-0.1,0.1-0.3,0.3-0.5,0.4c-0.1,0.1-0.6,0.4-0.6,0.7c0,0.2,0,0.3,0,0.4c0,0.1,0.1,0.2,0.2,0.3   c0.1-0.1,1.4-1.4,1.5-1.4c0.1,0.1-1.2,1.7-1.3,1.8c0,0,0.1,0.4,0.2,0.5C3.8,12.8,4,13,4.1,13c0.1-0.1,1.2-2,1.4-1.9   c0.1,0-1,2.1-1,2.2c0,0,0.4,0.4,0.6,0.5c0.1,0.1,0.3,0.1,0.4,0.2c0-0.1,0.7-2.5,0.8-2.5c0.1,0-0.2,2.5-0.2,2.6c0.1,0,0.2,0,0.4,0.1   c0.1,0,0.2,0.1,0.4,0.1c0.1,0,0.3-0.1,0.4-0.1c0.2,0,0.3-0.1,0.4-0.1c0-0.1-0.3-2.6-0.2-2.6c0.1,0,0.7,2.3,0.8,2.5   c0.1,0,0.3-0.1,0.4-0.2c0.1-0.1,0.6-0.5,0.6-0.5c0-0.1-1.1-2.2-1-2.2C8,11,9.2,12.9,9.3,13c0,0,0.2-0.2,0.3-0.3   c0.1-0.2,0.2-0.5,0.2-0.5c-0.1-0.1-1.4-1.7-1.3-1.8c0.1-0.1,1.4,1.2,1.5,1.4c0.1-0.1,0.1-0.3,0.2-0.3c0-0.1,0.1-0.2,0-0.4   C10.2,10.7,9.8,10.4,9.7,10.3"/>
	<path class="st7" d="M9.7,10.3c-0.2-0.1-0.4-0.4-0.5-0.4C8.9,9.6,7.3,7.4,7,6.9C6.9,6.7,6.8,6.7,6.7,6.7c-0.1,0-0.2,0-0.3,0.2   C6,7.4,4.4,9.6,4.2,9.8c-0.1,0.1-0.3,0.3-0.5,0.4c-0.1,0.1-0.6,0.4-0.6,0.7c0,0.2,0,0.3,0,0.4c0,0.1,0.1,0.2,0.2,0.3   c0.1-0.1,1.4-1.4,1.5-1.4c0.1,0.1-1.2,1.7-1.3,1.8c0,0,0.1,0.4,0.2,0.5C3.8,12.8,4,13,4.1,13c0.1-0.1,1.2-2,1.4-1.9   c0.1,0-1,2.1-1,2.2c0,0,0.4,0.4,0.6,0.5c0.1,0.1,0.3,0.1,0.4,0.2c0-0.1,0.7-2.5,0.8-2.5c0.1,0-0.2,2.5-0.2,2.6c0.1,0,0.2,0,0.4,0.1   c0.1,0,0.2,0.1,0.4,0.1c0.1,0,0.3-0.1,0.4-0.1c0.2,0,0.3-0.1,0.4-0.1c0-0.1-0.3-2.6-0.2-2.6c0.1,0,0.7,2.3,0.8,2.5   c0.1,0,0.3-0.1,0.4-0.2c0.1-0.1,0.6-0.5,0.6-0.5c0-0.1-1.1-2.2-1-2.2C8,11,9.2,12.9,9.3,13c0,0,0.2-0.2,0.3-0.3   c0.1-0.2,0.2-0.5,0.2-0.5c-0.1-0.1-1.4-1.7-1.3-1.8c0.1-0.1,1.4,1.2,1.5,1.4c0.1-0.1,0.1-0.3,0.2-0.3c0-0.1,0.1-0.2,0-0.4   C10.2,10.7,9.8,10.4,9.7,10.3z"/>
	<path class="st3" d="M5.5,7.5H4.1c0,0-0.1,0-0.2,0c0,0.1,0,0.2,0,0.2s0.5,1.2,0.5,1.2C4.6,8.8,5.4,7.6,5.5,7.5"/>
	<path class="st7" d="M5.5,7.5H4.1c0,0-0.1,0-0.2,0c0,0.1,0,0.2,0,0.2s0.5,1.2,0.5,1.2C4.6,8.8,5.4,7.6,5.5,7.5z"/>
	<path class="st3" d="M9.4,7.7c0,0,0.1-0.1,0-0.2c0,0-0.2,0-0.2,0H7.8c0.1,0.2,1,1.3,1.1,1.5C8.9,8.9,9.4,7.7,9.4,7.7"/>
	<path class="st7" d="M9.4,7.7c0,0,0.1-0.1,0-0.2c0,0-0.2,0-0.2,0H7.8c0.1,0.2,1,1.3,1.1,1.5C8.9,8.9,9.4,7.7,9.4,7.7z"/>
	<path class="st3" d="M28,10.3c-0.2-0.1-0.4-0.4-0.5-0.4c-0.3-0.2-1.9-2.4-2.2-3c-0.1-0.2-0.2-0.2-0.3-0.2c-0.1,0-0.2,0-0.3,0.2   c-0.3,0.5-1.9,2.7-2.2,3c-0.1,0.1-0.3,0.3-0.5,0.4c-0.1,0.1-0.6,0.4-0.6,0.7c0,0.2,0,0.3,0,0.4c0,0.1,0.1,0.2,0.2,0.3   c0.1-0.1,1.4-1.4,1.5-1.4c0.1,0.1-1.2,1.7-1.3,1.8c0,0,0.1,0.4,0.2,0.5c0.1,0.2,0.3,0.3,0.3,0.3c0.1-0.1,1.2-2,1.4-1.9   c0.1,0-1,2.1-1,2.2c0,0,0.4,0.4,0.6,0.5c0.1,0.1,0.3,0.1,0.4,0.2c0-0.1,0.7-2.5,0.8-2.5c0.1,0-0.2,2.5-0.2,2.6c0.1,0,0.2,0,0.4,0.1   c0.1,0,0.2,0.1,0.4,0.1c0.1,0,0.3-0.1,0.4-0.1c0.2,0,0.3-0.1,0.4-0.1c0-0.1-0.3-2.6-0.2-2.6c0.1,0,0.7,2.3,0.8,2.5   c0.1,0,0.3-0.1,0.4-0.2c0.1-0.1,0.6-0.5,0.6-0.5c0-0.1-1.1-2.2-1-2.2c0.1,0,1.3,1.8,1.4,1.9c0,0,0.2-0.2,0.3-0.3   c0.1-0.2,0.2-0.5,0.2-0.5c-0.1-0.1-1.4-1.7-1.3-1.8c0.1-0.1,1.4,1.2,1.5,1.4c0.1-0.1,0.1-0.3,0.2-0.3c0-0.1,0.1-0.2,0.1-0.4   C28.5,10.7,28.1,10.4,28,10.3"/>
	<path class="st7" d="M28,10.3c-0.2-0.1-0.4-0.4-0.5-0.4c-0.3-0.2-1.9-2.4-2.2-3c-0.1-0.2-0.2-0.2-0.3-0.2c-0.1,0-0.2,0-0.3,0.2   c-0.3,0.5-1.9,2.7-2.2,3c-0.1,0.1-0.3,0.3-0.5,0.4c-0.1,0.1-0.6,0.4-0.6,0.7c0,0.2,0,0.3,0,0.4c0,0.1,0.1,0.2,0.2,0.3   c0.1-0.1,1.4-1.4,1.5-1.4c0.1,0.1-1.2,1.7-1.3,1.8c0,0,0.1,0.4,0.2,0.5c0.1,0.2,0.3,0.3,0.3,0.3c0.1-0.1,1.2-2,1.4-1.9   c0.1,0-1,2.1-1,2.2c0,0,0.4,0.4,0.6,0.5c0.1,0.1,0.3,0.1,0.4,0.2c0-0.1,0.7-2.5,0.8-2.5c0.1,0-0.2,2.5-0.2,2.6c0.1,0,0.2,0,0.4,0.1   c0.1,0,0.2,0.1,0.4,0.1c0.1,0,0.3-0.1,0.4-0.1c0.2,0,0.3-0.1,0.4-0.1c0-0.1-0.3-2.6-0.2-2.6c0.1,0,0.7,2.3,0.8,2.5   c0.1,0,0.3-0.1,0.4-0.2c0.1-0.1,0.6-0.5,0.6-0.5c0-0.1-1.1-2.2-1-2.2c0.1,0,1.3,1.8,1.4,1.9c0,0,0.2-0.2,0.3-0.3   c0.1-0.2,0.2-0.5,0.2-0.5c-0.1-0.1-1.4-1.7-1.3-1.8c0.1-0.1,1.4,1.2,1.5,1.4c0.1-0.1,0.1-0.3,0.2-0.3c0-0.1,0.1-0.2,0.1-0.4   C28.5,10.7,28.1,10.4,28,10.3z"/>
	<path class="st3" d="M23.8,7.5h-1.4c0,0-0.1,0-0.2,0c0,0.1,0,0.2,0,0.2s0.5,1.2,0.5,1.2C22.9,8.8,23.7,7.6,23.8,7.5"/>
	<path class="st7" d="M23.8,7.5h-1.4c0,0-0.1,0-0.2,0c0,0.1,0,0.2,0,0.2s0.5,1.2,0.5,1.2C22.9,8.8,23.7,7.6,23.8,7.5z"/>
	<path class="st3" d="M27.7,7.7c0,0,0.1-0.1,0-0.2c0,0-0.2,0-0.2,0h-1.4c0.1,0.2,1,1.3,1.1,1.5C27.2,8.9,27.7,7.7,27.7,7.7"/>
	<path class="st7" d="M27.7,7.7c0,0,0.1-0.1,0-0.2c0,0-0.2,0-0.2,0h-1.4c0.1,0.2,1,1.3,1.1,1.5C27.2,8.9,27.7,7.7,27.7,7.7z"/>
	<path d="M10,9.9L10,9.9C9.9,9.9,9.6,9.6,9.6,9.6c0,0-0.2-0.2-0.3-0.4l0,0c0,0,0.6-1.4,0.6-1.4c0-0.1,0.1-0.2,0.1-0.3   c0-0.1,0-0.2-0.1-0.2C9.7,7.1,9.5,7.1,9.4,7.1c0,0-1.7,0-1.7,0c0-0.1-0.2-0.3-0.2-0.4C7.2,6.4,7,6.2,6.7,6.2   c-0.4,0-0.6,0.1-0.7,0.5c0,0.1-0.2,0.3-0.2,0.4c0,0-1.7,0-1.7,0c-0.2,0-0.3,0.1-0.4,0.2c0,0.1-0.1,0.2-0.1,0.2c0,0.1,0,0.2,0.1,0.3   c0,0,0.5,1.4,0.5,1.4c0,0,0,0,0,0C3.9,9.4,3.8,9.5,3.8,9.6C3.7,9.6,3.4,9.9,3.3,9.9c-0.5,0.3-0.7,0.7-0.7,1l0,0   c0,0.4,0.2,0.7,0.4,0.9L3,12.1c0.1,0.2,0.4,0.8,0.6,1c0.1,0.2,1,0.9,1.3,1.1c0.2,0.1,0.6,0.2,0.7,0.2c0,0,0.1,0,0.1,0   c0.1,0,0.7,0.2,1,0.2c0.3,0,0.9-0.2,1-0.2l0.1,0c0.2,0,0.5-0.1,0.7-0.2c0.3-0.1,1.1-0.9,1.3-1.1c0.2-0.2,0.5-0.9,0.6-1l0.1-0.1   c0.1-0.2,0.3-0.6,0.4-0.9v0C10.8,10.6,10.5,10.3,10,9.9 M8.5,10.3c0,0.2,1.2,1.7,1.3,1.8c0,0-0.1,0.4-0.2,0.5   c-0.1,0.1-0.3,0.3-0.3,0.3C9.2,12.9,8,11,7.9,11c0,0,0,0,0,0c0,0,0,0,0,0c0,0.1,0.3,0.9,1,2.2c0,0,0,0,0,0   c-0.1,0.1-0.4,0.4-0.5,0.4c-0.1,0.1-0.3,0.1-0.4,0.2c0-0.1-0.7-2.4-0.8-2.4h0l0,0c0,0,0,0,0,0.1c0,0.5,0.2,2.3,0.2,2.4   c0,0-0.1,0-0.1,0L7,14.1c0,0-0.1,0-0.1,0c-0.1,0-0.2,0.1-0.3,0.1c-0.1,0-0.2,0-0.3-0.1c0,0-0.1,0-0.1,0c0,0-0.2-0.1-0.2-0.1   S6,14,6,14c0-0.1,0.2-1.9,0.2-2.4c0-0.1,0-0.1,0-0.1l0,0l0,0c-0.1,0-0.7,2.3-0.8,2.4c-0.1,0-0.3-0.1-0.4-0.2   c-0.1-0.1-0.5-0.4-0.5-0.4c0,0,0-0.1,0-0.1c0.4-0.9,1-2,1-2.2l0,0c0,0,0,0,0,0C5.3,11,4.1,12.9,4.1,13c0,0-0.2-0.2-0.3-0.3   c-0.1-0.2-0.2-0.5-0.2-0.5c0.1-0.1,1.3-1.6,1.3-1.8c0,0,0,0,0,0c0,0,0,0,0,0c-0.2,0-1.4,1.3-1.5,1.4c0,0-0.1-0.1-0.1-0.1l-0.1-0.2   c0-0.1-0.1-0.2-0.1-0.3l0-0.1c0-0.2,0.2-0.5,0.6-0.7C3.8,10.2,4,10,4.1,9.9c0,0,0.1-0.1,0.1-0.1c0.3-0.2,1.9-2.4,2.2-3   c0.1-0.1,0.2-0.2,0.3-0.2c0.1,0,0.2,0,0.3,0.2c0.3,0.5,1.9,2.7,2.2,3l0.1,0.1c0.1,0.1,0.3,0.2,0.4,0.4c0.2,0.1,0.6,0.4,0.6,0.7   l0,0.1c0,0.1,0,0.2-0.1,0.3l-0.1,0.2c0,0-0.1,0.1-0.1,0.1C9.9,11.6,8.7,10.3,8.5,10.3C8.5,10.3,8.5,10.3,8.5,10.3   C8.5,10.3,8.5,10.3,8.5,10.3 M7.9,7.5h1.4h0c0.1,0,0.1,0,0.1,0l0,0.1c0,0.1,0,0.1,0,0.1c0,0-0.4,1.1-0.5,1.2   C8.9,8.8,7.9,7.6,7.9,7.5 M5.5,7.5c0,0-1,1.4-1,1.4c0,0-0.5-1.2-0.5-1.2c0,0,0-0.1,0-0.1l0-0.1c0,0,0,0,0.1,0   C4.1,7.5,5.4,7.5,5.5,7.5"/>
	<path d="M19.2,9.8L19.2,9.8c-0.1-0.1-0.4-0.3-0.5-0.4c0,0-0.2-0.2-0.3-0.4l0,0c0,0,0.6-1.4,0.6-1.4C19,7.5,19,7.5,19,7.4   c0-0.1,0-0.2-0.1-0.2C18.8,7,18.7,7,18.5,7c0,0-1.7,0-1.7,0c0-0.1-0.2-0.3-0.2-0.4c-0.2-0.3-0.4-0.5-0.7-0.5   c-0.4,0-0.6,0.1-0.7,0.5c0,0.1-0.2,0.3-0.2,0.4c0,0-1.7,0-1.7,0C13,7,12.9,7,12.8,7.1c0,0.1-0.1,0.2-0.1,0.2c0,0.1,0,0.2,0.1,0.3   c0,0,0.5,1.4,0.5,1.4c0,0,0,0,0,0c-0.2,0.2-0.3,0.3-0.3,0.4c-0.1,0.1-0.3,0.3-0.5,0.4c-0.5,0.3-0.7,0.7-0.7,1v0   c0,0.4,0.2,0.7,0.4,0.9l0.1,0.1c0.1,0.2,0.4,0.8,0.6,1c0.1,0.2,1,0.9,1.3,1.1c0.2,0.1,0.6,0.2,0.7,0.2c0,0,0.1,0,0.1,0   c0.1,0,0.7,0.2,1,0.2c0.3,0,0.9-0.2,1-0.2c0,0,0.1,0,0.1,0c0.2,0,0.5-0.1,0.7-0.2c0.3-0.1,1.1-0.9,1.3-1.1c0.2-0.2,0.5-0.9,0.6-1   c0,0,0.1-0.1,0.1-0.1c0.1-0.2,0.3-0.6,0.4-0.9v0C19.9,10.5,19.7,10.1,19.2,9.8 M17.6,10.2c0,0.2,1.2,1.7,1.3,1.8   c0,0-0.1,0.4-0.2,0.5c-0.1,0.1-0.3,0.3-0.3,0.3c-0.1-0.1-1.2-2-1.4-1.9c0,0,0,0,0,0c0,0,0,0,0,0c0,0.1,0.3,0.9,1,2.2c0,0,0,0,0,0   c-0.1,0.1-0.4,0.4-0.5,0.4c-0.1,0.1-0.3,0.1-0.4,0.2c0-0.1-0.7-2.4-0.8-2.4h0l0,0c0,0,0,0,0,0.1c0,0.5,0.2,2.3,0.2,2.4   c0,0-0.1,0-0.1,0L16.2,14c0,0-0.1,0-0.1,0c-0.1,0-0.2,0.1-0.3,0.1c-0.1,0-0.2,0-0.3-0.1c0,0-0.1,0-0.1,0c0,0-0.2-0.1-0.2-0.1   s-0.1,0-0.1,0c0-0.1,0.2-1.9,0.2-2.4c0-0.1,0-0.1,0-0.1l0,0l0,0c-0.1,0-0.7,2.3-0.8,2.4c-0.1,0-0.3-0.1-0.4-0.2   c-0.1-0.1-0.5-0.4-0.5-0.4c0,0,0-0.1,0-0.1c0.4-0.9,1-2,1-2.2l0,0c0,0,0,0,0,0c-0.1-0.1-1.3,1.8-1.4,1.9c0,0-0.2-0.2-0.3-0.3   c-0.1-0.2-0.2-0.5-0.2-0.5c0.1-0.1,1.3-1.6,1.3-1.8c0,0,0,0,0,0c0,0,0,0,0,0c-0.2,0-1.4,1.3-1.5,1.4c0,0-0.1-0.1-0.1-0.1l-0.1-0.2   c0-0.1-0.1-0.2-0.1-0.3l0-0.1c0-0.2,0.2-0.5,0.6-0.7c0.1-0.1,0.3-0.3,0.4-0.4c0,0,0.1-0.1,0.1-0.1c0.3-0.2,1.9-2.4,2.2-3   c0.1-0.1,0.2-0.2,0.3-0.2c0.1,0,0.2,0,0.3,0.2c0.3,0.5,1.9,2.7,2.2,3l0.1,0.1c0.1,0.1,0.3,0.2,0.4,0.4c0.2,0.1,0.6,0.4,0.6,0.7   l0,0.1c0,0.1,0,0.2-0.1,0.3l-0.1,0.2c0,0,0,0.1-0.1,0.1C19.1,11.4,17.8,10.2,17.6,10.2C17.7,10.2,17.7,10.2,17.6,10.2   C17.7,10.2,17.6,10.2,17.6,10.2 M17,7.4h1.4h0c0.1,0,0.1,0,0.1,0c0,0,0,0.1,0,0.1l0,0.1c0,0-0.4,1.1-0.5,1.2   C18,8.7,17.1,7.5,17,7.4 M14.7,7.4c0,0-1,1.4-1,1.4c0,0-0.5-1.2-0.5-1.2c0,0,0-0.1,0-0.1l0-0.1c0,0,0,0,0.1,0   C13.3,7.4,14.6,7.4,14.7,7.4"/>
	<path d="M28.3,9.9L28.3,9.9c-0.1-0.1-0.4-0.3-0.5-0.4c0,0-0.2-0.2-0.3-0.4l0,0c0,0,0.6-1.4,0.6-1.4c0-0.1,0.1-0.2,0.1-0.3   c0-0.1,0-0.2-0.1-0.2c-0.1-0.1-0.2-0.2-0.4-0.2c0,0-1.7,0-1.7,0c0-0.1-0.2-0.3-0.2-0.4c-0.2-0.3-0.4-0.5-0.7-0.5   c-0.4,0-0.6,0.1-0.7,0.5C24.2,6.8,24,7,24,7.1c0,0-1.7,0-1.7,0c-0.2,0-0.3,0.1-0.4,0.2c0,0.1-0.1,0.2-0.1,0.2c0,0.1,0,0.2,0.1,0.3   c0,0,0.5,1.4,0.5,1.4c0,0,0,0,0,0c-0.2,0.2-0.3,0.3-0.3,0.4c-0.1,0.1-0.3,0.3-0.5,0.4c-0.5,0.3-0.7,0.7-0.7,1l0,0   c0,0.4,0.2,0.7,0.4,0.9l0.1,0.1c0.1,0.2,0.4,0.8,0.6,1c0.1,0.2,1,0.9,1.3,1.1c0.2,0.1,0.6,0.2,0.7,0.2l0.1,0c0.1,0,0.7,0.2,1,0.2   c0.3,0,0.9-0.2,1-0.2l0.1,0c0.2,0,0.5-0.1,0.7-0.2c0.3-0.1,1.1-0.9,1.3-1.1c0.2-0.2,0.5-0.9,0.6-1l0.1-0.1c0.1-0.2,0.3-0.6,0.4-0.9   v0C29.1,10.6,28.8,10.3,28.3,9.9 M26.8,10.3c0,0.2,1.2,1.7,1.3,1.8c0,0-0.1,0.4-0.2,0.5c-0.1,0.1-0.3,0.3-0.3,0.3   c-0.1-0.1-1.2-2-1.4-1.9c0,0,0,0,0,0c0,0,0,0,0,0c0,0.1,0.3,0.9,1,2.2c0,0,0,0,0,0c-0.1,0.1-0.4,0.4-0.5,0.4   c-0.1,0.1-0.3,0.1-0.4,0.2c0-0.1-0.7-2.4-0.8-2.4h0l0,0c0,0,0,0,0,0.1c0,0.5,0.2,2.3,0.2,2.4c0,0-0.1,0-0.1,0l-0.2,0.1l-0.1,0   c-0.1,0-0.2,0.1-0.3,0.1c-0.1,0-0.2,0-0.3-0.1c0,0-0.1,0-0.1,0c0,0-0.2-0.1-0.2-0.1s-0.1,0-0.1,0c0-0.1,0.2-1.9,0.2-2.4   c0-0.1,0-0.1,0-0.1l0,0l0,0c-0.1,0-0.7,2.3-0.8,2.4c-0.1,0-0.3-0.1-0.4-0.2c-0.1-0.1-0.5-0.4-0.5-0.4c0,0,0-0.1,0-0.1   c0.4-0.9,1-2,1-2.2l0,0c0,0,0,0,0,0c-0.1-0.1-1.3,1.8-1.4,1.9c0,0-0.2-0.2-0.3-0.3c-0.1-0.2-0.2-0.5-0.2-0.5   c0.1-0.1,1.3-1.6,1.3-1.8c0,0,0,0,0,0c0,0,0,0,0,0c-0.2,0-1.4,1.3-1.5,1.4c0,0-0.1-0.1-0.1-0.1l-0.1-0.2c0-0.1-0.1-0.2-0.1-0.3   l0-0.1c0-0.2,0.2-0.5,0.6-0.7c0.1-0.1,0.3-0.3,0.4-0.4c0,0,0.1-0.1,0.1-0.1c0.3-0.2,1.9-2.4,2.2-3c0.1-0.1,0.2-0.2,0.3-0.2   c0.1,0,0.2,0,0.3,0.2c0.3,0.5,1.9,2.7,2.2,3l0.1,0.1c0.1,0.1,0.3,0.2,0.4,0.4c0.2,0.1,0.6,0.4,0.6,0.7l0,0.1c0,0.1,0,0.2-0.1,0.3   l-0.1,0.2c0,0,0,0.1-0.1,0.1C28.2,11.6,27,10.3,26.8,10.3C26.8,10.3,26.8,10.3,26.8,10.3C26.8,10.3,26.8,10.3,26.8,10.3 M26.1,7.5   h1.4h0c0.1,0,0.1,0,0.1,0l0,0.1l0,0.1c0,0-0.4,1.1-0.5,1.2C27.2,8.8,26.2,7.6,26.1,7.5 M23.8,7.5c0,0-1,1.4-1,1.4   c0,0-0.5-1.2-0.5-1.2c0,0,0-0.1,0-0.1l0-0.1c0,0,0,0,0.1,0C22.4,7.5,23.7,7.5,23.8,7.5"/>
</g>
<g>
	<path class="st2" d="M45,40.7C44.2,41,43.3,41,42,41c-0.4,0-1.7,0-2.2-0.1v-9.4c0.1,0,1.1-0.1,2.2-0.1c0.8,0,1.7,0,2.4,0.2   c1,0.2,1.9,0.8,1.9,2.1c0,1.8-1.8,2.2-2.2,2.3c0.2,0,2.5,0.1,2.5,2.3C46.6,39.7,45.7,40.4,45,40.7z M42.3,32.4c-0.3,0-0.6,0-0.6,0   v3.1c0,0,0.2,0,0.8,0c0.2,0,0.5,0,0.7-0.1c0.6-0.1,1.1-0.6,1.1-1.5C44.3,32.7,43.4,32.4,42.3,32.4z M42.5,36.6c-0.4,0-0.8,0-0.8,0   v3.3c0,0,0.1,0,0.8,0c0.5,0,0.9-0.1,1.1-0.2c0.4-0.2,0.9-0.6,0.9-1.6C44.6,36.9,43.7,36.6,42.5,36.6z"/>
	<path class="st2" d="M52.3,40.9v-0.7c0,0-0.6,0.9-2.2,0.9c-1.1,0-2.1-0.5-2.3-1.5c-0.1-0.5-0.1-1.1-0.1-1.4v-4.1h2v4   c0,0.4,0,0.7,0.1,0.9c0.1,0.6,0.6,0.9,1.4,0.9c0.6,0,1.1-0.2,1.1-0.2v-5.6h2V41h-2V40.9z"/>
	<path class="st2" d="M57.7,41c-1.7,0-2.5-0.4-2.5-0.4l0.4-1.1c0,0,0.7,0.4,1.9,0.4c0.8,0,1.2-0.3,1.2-0.8c0-0.4-0.2-0.5-0.7-0.8   l-1.1-0.6c-1-0.5-1.5-1-1.5-2c0-1.3,1-2,2.7-2c1.5,0,2.3,0.4,2.3,0.4L60,35.2c0,0-0.7-0.4-1.6-0.4c-0.6,0-1.1,0.1-1.1,0.7   c0,0.4,0.3,0.6,0.9,0.8l1.1,0.5c0.9,0.4,1.4,1,1.4,1.9C60.5,40.5,59.2,41,57.7,41z"/>
	<path class="st2" d="M62.6,33.1c-0.7,0-1.2-0.4-1.2-1c0-0.6,0.5-1,1.2-1s1.2,0.4,1.2,1C63.8,32.7,63.4,33.1,62.6,33.1z M61.7,40.9   v-3.6v-3.2h2V41h-2V40.9z"/>
	<path class="st2" d="M69.7,40.9V37c0-0.3,0-0.7-0.1-1c-0.1-0.6-0.6-0.9-1.4-0.9c-0.6,0-1.1,0.2-1.1,0.2v5.6h-2V34h2v0.7   c0,0,0.6-0.8,2.2-0.8c1.5,0,2.2,0.8,2.3,1.5c0.1,0.5,0.1,1,0.1,1.3v4.1h-2V40.9z"/>
	<path class="st2" d="M74.7,37.6L74.7,37.6c0,1.4,0.9,2.3,2.4,2.3c1,0,1.6-0.3,1.6-0.3l0.4,1c0,0-0.8,0.4-2.5,0.4   c-2,0-3.8-0.8-3.8-3.5c0-1.3,0.5-3.6,3.5-3.6c1.5,0,2.2,0.5,2.7,1.2c0.4,0.7,0.4,1.6,0.4,2.3v0.1L74.7,37.6L74.7,37.6z M77.3,36.4   c0-1-0.4-1.5-1.3-1.5c-0.7,0-1.1,0.4-1.2,1c-0.1,0.3-0.1,0.7-0.1,0.8h2.6V36.4z"/>
	<path class="st2" d="M82.6,41c-1.7,0-2.5-0.4-2.5-0.4l0.4-1.1c0,0,0.7,0.4,1.9,0.4c0.8,0,1.2-0.3,1.2-0.8c0-0.4-0.2-0.5-0.7-0.8   l-1.1-0.6c-1-0.5-1.5-1-1.5-2c0-1.3,1-2,2.7-2c1.5,0,2.3,0.4,2.3,0.4l-0.4,1.1c0,0-0.7-0.4-1.6-0.4c-0.6,0-1.1,0.1-1.1,0.7   c0,0.4,0.3,0.6,0.9,0.8L84,37c0.9,0.4,1.4,1,1.4,1.9C85.4,40.5,84.1,41,82.6,41z"/>
	<path class="st2" d="M88.4,41c-1.7,0-2.5-0.4-2.5-0.4l0.4-1.1c0,0,0.7,0.4,1.9,0.4c0.8,0,1.2-0.3,1.2-0.8c0-0.4-0.2-0.5-0.7-0.8   l-1.1-0.6c-1-0.5-1.5-1-1.5-2c0-1.3,1-2,2.7-2c1.5,0,2.3,0.4,2.3,0.4l-0.4,1.1c0,0-0.7-0.4-1.6-0.4c-0.6,0-1.1,0.1-1.1,0.7   c0,0.4,0.3,0.6,0.9,0.8l1.1,0.5c0.9,0.4,1.4,1,1.4,1.9C91.2,40.5,89.9,41,88.4,41z"/>
	<path class="st2" d="M98.2,41c-1.9,0-2.9-0.4-2.9-0.4l0.5-1.2c0,0,0.8,0.4,2.1,0.4c1.2,0,2-0.3,2-1.3c0-0.6-0.3-0.9-1-1.3l-1.5-0.8   c-0.9-0.5-1.8-1.1-1.8-2.4c0-1.7,1.2-2.7,3.3-2.7c1.8,0,2.6,0.4,2.6,0.4l-0.4,1.2c0,0-0.7-0.4-1.9-0.4c-0.6,0-1.7,0.1-1.7,1.1   c0,0.6,0.4,0.9,1.3,1.3l1.3,0.7c1.2,0.6,1.8,1.3,1.8,2.5C101.8,40,100.5,41,98.2,41z"/>
	<path class="st2" d="M107.9,35.4c0,0-0.5-0.3-1.3-0.3c-1.5,0-2.1,0.8-2.1,2.4c0,1.1,0.4,2.4,2.1,2.4c0.6,0,1.1-0.2,1.4-0.3l0.4,1   c0,0-0.7,0.4-2.3,0.4c-2.4,0-3.6-1.4-3.6-3.4c0-0.8,0.2-1.6,0.6-2.2c0.6-0.9,1.6-1.5,3.3-1.5c1.2,0,2,0.4,2,0.4L107.9,35.4z"/>
	<path class="st2" d="M113.9,40.9V37c0-0.3,0-0.7-0.1-1c-0.1-0.6-0.6-0.9-1.4-0.9c-0.6,0-1.1,0.2-1.1,0.2v5.6h-2V30.5h2v4.2   c0,0,0.6-0.8,2.2-0.8c1.5,0,2.1,0.8,2.3,1.5c0.1,0.5,0.1,1,0.1,1.3v4.1h-2V40.9z"/>
	<path class="st2" d="M133.1,40.9v-8.1v-2.3h2v10.4H133.1z"/>
</g>
<g>
	<path class="st2" d="M52.8,24.5v-9.7h-8.7v9.7h-4.4V2.9h4.4v9h8.7v-9h4.3v21.6H52.8z"/>
	<path class="st2" d="M65.2,16.9v0.3c0,3.1,2,4.9,5,4.9c2.1,0,3.3-0.7,3.3-0.7l0.8,2.4c0,0-1.7,0.9-5.4,0.9c-4.3,0-8.1-1.8-8.1-8   c0-2.9,1.1-8.2,7.5-8.2c3.1,0,4.7,1.1,5.7,2.8c0.9,1.5,0.9,3.6,0.9,5.3v0.2h-9.7V16.9z M70.7,14.1c0-2.3-0.9-3.5-2.7-3.5   c-1.5,0-2.3,0.9-2.6,2.3c-0.2,0.8-0.2,1.6-0.2,1.8h5.5C70.7,14.7,70.7,14.1,70.7,14.1z"/>
	<path class="st2" d="M88.2,24.5v-9c0-0.8,0-1.6-0.1-2.2c-0.3-1.5-1.3-2.1-2.9-2.1c-1.4,0-2.4,0.5-2.4,0.5v12.7h-4.3V8.8h4.2v1.6   c0,0,1.3-1.9,4.7-1.9c3.3,0,4.6,1.9,4.9,3.5c0.2,1.1,0.2,2.4,0.2,3.1v9.5h-4.3V24.5z"/>
	<path class="st2" d="M97.4,24.5V10.4V0.8h4.3v23.7H97.4z"/>
	<path class="st2" d="M109.4,16.9v0.3c0,3.1,2,4.9,5,4.9c2.1,0,3.3-0.7,3.3-0.7l0.8,2.4c0,0-1.7,0.9-5.4,0.9c-4.3,0-8.1-1.8-8.1-8   c0-2.9,1.1-8.2,7.5-8.2c3.1,0,4.7,1.1,5.7,2.8c0.9,1.5,1,3.6,1,5.3v0.2h-9.8V16.9z M115,14.1c0-2.3-0.9-3.5-2.7-3.5   c-1.5,0-2.3,0.9-2.6,2.3c-0.2,0.8-0.2,1.6-0.2,1.8h5.5C115,14.7,115,14.1,115,14.1z"/>
	<path class="st2" d="M130.1,27.3c-1.1,3.1-2.6,4.1-5.2,4.1c-1.7,0-2.7-0.4-2.7-0.4l0.6-2.5c0,0,0.7,0.4,1.5,0.4   c1.3,0,2-0.7,2.5-2.2l0.5-1.4L121,8.9h4.7L129,19c0.4,1.3,0.5,1.9,0.5,2c0-0.1,0.3-1,0.5-1.9l2.9-10.2h3.8L130.1,27.3z"/>
</g>
<polygon class="st2" points="136.7,47.8 0.2,47.8 0.2,47 73.8,47 136.7,47 "/>
<g>
	<path class="st2" d="M5.4,53.8v3.7c0,1.1-0.1,1.5-0.1,1.7c-0.2,0.7-0.7,1.6-2.5,1.6c-1.5,0-2.1-0.6-2.4-1.2c-0.2-0.5-0.2-1.2-0.2-2   v-3.7h1v4.4c0,0.3,0,0.7,0.1,0.9c0.2,0.7,0.7,1,1.5,1c0.9,0,1.4-0.3,1.6-1.1c0-0.2,0.1-0.6,0.1-0.9v-4.4H5.4z"/>
	<path class="st2" d="M12.8,60.7l-3.4-4.8c-0.3-0.4-0.3-0.6-0.3-0.6v5.4H8.4v-6.9h0.8l3.3,4.6c0.3,0.4,0.3,0.6,0.4,0.6v-5.3h0.8v6.9   L12.8,60.7L12.8,60.7z"/>
	<path class="st2" d="M16.7,60.7v-5v-1.9h1v6.9H16.7z"/>
	<path class="st2" d="M23.5,60.7h-0.9l-2.5-6.9h1.1l1.7,5c0.2,0.5,0.2,0.8,0.2,0.8s0.1-0.3,0.2-0.8l1.7-5h1L23.5,60.7z"/>
	<path class="st2" d="M28.2,60.7v-6.9h3.4v0.7h-2.3v2.3h2.1v0.7h-2.1V60h2.5v0.7H28.2z"/>
	<path class="st2" d="M38.1,60.7l-2.2-2.9h-0.6v2.9h-1v-6.8c0,0,0.5-0.1,1.3-0.1c0.5,0,1,0,1.4,0.1c1.1,0.3,1.4,1.1,1.4,1.7   c0,1.6-1.4,2-1.4,2l2.5,3.1H38.1z M35.3,57.2c0,0,0.2,0,0.5,0c0.2,0,0.4,0,0.6,0c0.3,0,1-0.2,1-1.5s-0.8-1.4-1.5-1.4   c-0.4,0-0.5,0-0.5,0L35.3,57.2L35.3,57.2z"/>
	<path class="st2" d="M44.9,54.7c0,0-0.4-0.3-1.3-0.3c-0.2,0-1.3,0-1.3,1c0,0.5,0.3,0.7,0.9,1.1l1,0.6c0.7,0.5,1.1,0.9,1.1,1.7   c0,1.1-0.8,2-2.3,2c-1.2,0-1.8-0.3-1.8-0.3l0.3-0.7c0,0,0.5,0.4,1.4,0.4c0.8,0,1.5-0.3,1.5-1.1c0-0.5-0.2-0.7-0.6-1l-1.2-0.8   c-0.4-0.2-1.1-0.7-1.1-1.7c0-1.2,0.8-1.8,2.1-1.8c1.1,0,1.6,0.3,1.6,0.3L44.9,54.7z"/>
	<path class="st2" d="M48.1,60.7v-4.5v-2.4h1v6.9H48.1z"/>
	<path class="st2" d="M54.5,54.5v6.2h-1v-6.2h-2v-0.7h5v0.7H54.5z"/>
	<path class="st2" d="M61.4,57.9v2.8h-1V58l-2.3-4.2h1.2l1.8,3.4l1.7-3.4h1L61.4,57.9z"/>
	<path class="st2" d="M73.2,60.8c-2,0-3.2-1.2-3.2-3.4c0-2.3,1.2-3.7,3.1-3.7c2,0,3.2,1.2,3.2,3.4C76.4,59.5,75.2,60.8,73.2,60.8z    M73.2,54.4c-1.3,0-2,1-2,2.9s0.7,2.8,2.1,2.8c1.3,0,2-1,2-2.9C75.3,55.4,74.6,54.4,73.2,54.4z"/>
	<path class="st2" d="M79.4,54.5v2.3h2.1v0.7h-2.1v3.2h-1v-6.9h3.4v0.7H79.4z"/>
	<path class="st2" d="M93.5,60.7l-2.2-2.9h-0.6v2.9h-1v-6.8c0,0,0.5-0.1,1.3-0.1c0.5,0,1,0,1.3,0.1c1.1,0.3,1.4,1.1,1.4,1.7   c0,1.6-1.4,2-1.4,2l2.5,3.1H93.5z M90.7,57.2c0,0,0.2,0,0.5,0c0.2,0,0.4,0,0.6,0c0.3,0,1-0.2,1-1.5s-0.8-1.4-1.5-1.4   c-0.4,0-0.5,0-0.5,0L90.7,57.2L90.7,57.2z"/>
	<path class="st2" d="M97,60.7v-6.9h3.4v0.7H98v2.3h2.1v0.7H98V60h2.5v0.7H97z"/>
	<path class="st2" d="M107.2,60.7l-0.8-2.3h-2.3l-0.8,2.3h-0.9l2.6-6.9h0.9l2.5,6.9H107.2z M105.5,55.6c-0.2-0.5-0.2-0.8-0.2-0.8   s-0.1,0.2-0.2,0.8l-0.7,2.1h1.9L105.5,55.6z"/>
	<path class="st2" d="M110.7,53.9c0.1,0,0.8-0.1,1.6-0.1c1.3,0,2,0.1,2.6,0.5c1.2,0.8,1.4,2.1,1.4,2.9c0,1.5-0.6,2.7-1.7,3.2   c-0.6,0.3-1.4,0.4-2.3,0.4c-0.7,0-1.5-0.1-1.5-0.1L110.7,53.9L110.7,53.9z M111.7,60.1c0,0,0.2,0,0.8,0c0.7,0,1.1-0.1,1.5-0.3   c0.5-0.3,1.2-1,1.2-2.6c0-1.2-0.4-2.2-1.1-2.6c-0.4-0.2-0.8-0.3-1.6-0.3c-0.3,0-0.7,0-0.7,0v5.8H111.7z"/>
	<path class="st2" d="M119.1,60.7v-3.8v-3.1h1v6.9C120.1,60.7,119.1,60.7,119.1,60.7z"/>
	<path class="st2" d="M127.8,60.7l-3.4-4.8c-0.3-0.4-0.3-0.6-0.3-0.6v5.4h-0.8v-6.9h0.8l3.3,4.6c0.3,0.4,0.3,0.6,0.4,0.6v-5.3h0.8   v6.9L127.8,60.7L127.8,60.7z"/>
	<path class="st2" d="M136.7,57.6v2.8c0,0-0.8,0.3-2,0.3c-1.9,0-3.3-1-3.3-3.3c0-0.9,0.2-1.7,0.7-2.4c0.8-1.3,2.2-1.3,3-1.3   c1,0,1.7,0.2,1.7,0.3l-0.3,0.7c0,0-0.5-0.3-1.4-0.3c-1.9,0-2.6,1.2-2.6,2.9c0,1.9,0.8,2.9,2.5,2.9c0.5,0,0.8-0.1,0.8-0.1v-2.4h0.9   V57.6z"/>
</g>
<path class="st2" d="M120.4,41.1c-2.3,0-3.6-1.3-3.6-3.5c0-1.9,1-3.7,3.7-3.7c2.3,0,3.6,1.3,3.6,3.5  C124.1,39.3,123.1,41.1,120.4,41.1z M120.5,35c-1.1,0-1.5,0.8-1.5,2.5c0,1.6,0.4,2.5,1.6,2.5c1.1,0,1.5-0.8,1.5-2.5  C122,35.9,121.7,35,120.5,35z"/>
<path class="st2" d="M128.5,41.1c-2.3,0-3.6-1.3-3.6-3.5c0-1.9,1-3.7,3.7-3.7c2.3,0,3.6,1.3,3.6,3.5  C132.2,39.3,131.2,41.1,128.5,41.1z M128.6,35c-1.1,0-1.5,0.8-1.5,2.5c0,1.6,0.4,2.5,1.6,2.5c1.1,0,1.5-0.8,1.5-2.5  C130.1,35.9,129.7,35,128.6,35z"/>
</svg>